<svg width="680" height="420" viewBox="0 0 680 420" xmlns="http://www.w3.org/2000/svg" style="background:transparent">
  <title>TTPForge logo - light version</title>
  <desc>TTPForge PCB logo in white for use on dark backgrounds</desc>

  <style>
    .logo-text { font-family: 'Courier New', monospace; fill: #ffffff; letter-spacing: 0.14em; }
    .logo-sub  { font-family: 'Courier New', monospace; fill: #aaaaaa; letter-spacing: 0.38em; }
    .tk  { fill: none; stroke: #ffffff; stroke-linecap: round; stroke-linejoin: round; stroke-width: 9; }
    .tks { fill: none; stroke: #ffffff; stroke-linecap: round; stroke-linejoin: round; stroke-width: 5; }
    .pad { fill: #ffffff; }
    .hole { fill: #ffffff; }
  </style>

  <g transform="translate(340, 20)">
    <line class="tk" x1="-140" y1="70"  x2="140"  y2="70"/>
    <line class="tk" x1="-140" y1="140" x2="140"  y2="140"/>
    <line class="tk" x1="-140" y1="210" x2="140"  y2="210"/>
    <line class="tk" x1="-105" y1="0"   x2="-105" y2="280"/>
    <line class="tk" x1="-35"  y1="0"   x2="-35"  y2="280"/>
    <line class="tk" x1="35"   y1="0"   x2="35"   y2="280"/>
    <line class="tk" x1="105"  y1="0"   x2="105"  y2="280"/>

    <line class="tks" x1="-140" y1="35"  x2="-35"  y2="35"/>
    <line class="tks" x1="35"   y1="35"  x2="140"  y2="35"/>
    <line class="tks" x1="-140" y1="105" x2="-70"  y2="105"/>
    <line class="tks" x1="70"   y1="105" x2="140"  y2="105"/>
    <line class="tks" x1="-140" y1="175" x2="-35"  y2="175"/>
    <line class="tks" x1="35"   y1="175" x2="140"  y2="175"/>
    <line class="tks" x1="-70"  y1="245" x2="70"   y2="245"/>
    <line class="tks" x1="-70"  y1="0"   x2="-70"  y2="105"/>
    <line class="tks" x1="70"   y1="0"   x2="70"   y2="105"/>
    <line class="tks" x1="-70"  y1="175" x2="-70"  y2="280"/>
    <line class="tks" x1="70"   y1="175" x2="70"   y2="280"/>
    <line class="tks" x1="0"    y1="0"   x2="0"    y2="100"/>
    <line class="tks" x1="0"    y1="180" x2="0"    y2="280"/>

    <polyline class="tks" points="-35,35  -20,35   0,35   0,70"/>
    <polyline class="tks" points="-35,245 -18,245  0,245  0,210"/>
    <polyline class="tks" points="35,245  18,245   0,245"/>
    <polyline class="tks" points="-140,105 -122,105 -105,122 -105,140"/>
    <polyline class="tks" points="140,105  122,105  105,122  105,140"/>
    <polyline class="tks" points="-140,175 -122,175 -105,158 -105,140"/>
    <polyline class="tks" points="140,175  122,175  105,158  105,140"/>
    <polyline class="tks" points="-70,245  -52,245  -35,228  -35,210"/>
    <polyline class="tks" points="70,245   52,245   35,228   35,210"/>

    <rect x="-40" y="100" width="80" height="80" rx="3" class="pad"/>
    <rect x="-33" y="107" width="66" height="66" rx="2" fill="#ffffff" stroke="none"/>
    <circle cx="-27" cy="113" r="4" class="pad"/>
    <line x1="-18" y1="140" x2="18" y2="140" stroke="#ffffff" stroke-width="3"/>
    <line x1="-10" y1="150" x2="10" y2="150" stroke="#ffffff" stroke-width="3"/>
    <rect x="-26" y="90"  width="10" height="12" rx="1" class="pad"/>
    <rect x="-8"  y="90"  width="10" height="12" rx="1" class="pad"/>
    <rect x="10"  y="90"  width="10" height="12" rx="1" class="pad"/>
    <rect x="28"  y="90"  width="10" height="12" rx="1" class="pad"/>
    <rect x="-26" y="178" width="10" height="12" rx="1" class="pad"/>
    <rect x="-8"  y="178" width="10" height="12" rx="1" class="pad"/>
    <rect x="10"  y="178" width="10" height="12" rx="1" class="pad"/>
    <rect x="28"  y="178" width="10" height="12" rx="1" class="pad"/>
    <rect x="-52" y="112" width="12" height="10" rx="1" class="pad"/>
    <rect x="-52" y="128" width="12" height="10" rx="1" class="pad"/>
    <rect x="-52" y="144" width="12" height="10" rx="1" class="pad"/>
    <rect x="-52" y="160" width="12" height="10" rx="1" class="pad"/>
    <rect x="40"  y="112" width="12" height="10" rx="1" class="pad"/>
    <rect x="40"  y="128" width="12" height="10" rx="1" class="pad"/>
    <rect x="40"  y="144" width="12" height="10" rx="1" class="pad"/>
    <rect x="40"  y="160" width="12" height="10" rx="1" class="pad"/>

    <circle cx="-105" cy="70" r="14" class="pad"/><circle cx="-105" cy="70" r="6" style="fill:#000000"/>
    <circle cx="-35"  cy="70" r="14" class="pad"/><circle cx="-35"  cy="70" r="6" style="fill:#000000"/>
    <circle cx="35"   cy="70" r="14" class="pad"/><circle cx="35"   cy="70" r="6" style="fill:#000000"/>
    <circle cx="105"  cy="70" r="14" class="pad"/><circle cx="105"  cy="70" r="6" style="fill:#000000"/>
    <circle cx="-105" cy="140" r="14" class="pad"/><circle cx="-105" cy="140" r="6" style="fill:#000000"/>
    <circle cx="105"  cy="140" r="14" class="pad"/><circle cx="105"  cy="140" r="6" style="fill:#000000"/>
    <circle cx="-105" cy="210" r="14" class="pad"/><circle cx="-105" cy="210" r="6" style="fill:#000000"/>
    <circle cx="-35"  cy="210" r="14" class="pad"/><circle cx="-35"  cy="210" r="6" style="fill:#000000"/>
    <circle cx="35"   cy="210" r="14" class="pad"/><circle cx="35"   cy="210" r="6" style="fill:#000000"/>
    <circle cx="105"  cy="210" r="14" class="pad"/><circle cx="105"  cy="210" r="6" style="fill:#000000"/>

    <circle cx="-70" cy="35"  r="8" class="pad"/>
    <circle cx="70"  cy="35"  r="8" class="pad"/>
    <circle cx="-70" cy="105" r="8" class="pad"/>
    <circle cx="70"  cy="105" r="8" class="pad"/>
    <circle cx="-70" cy="175" r="8" class="pad"/>
    <circle cx="70"  cy="175" r="8" class="pad"/>
    <circle cx="-70" cy="245" r="8" class="pad"/>
    <circle cx="70"  cy="245" r="8" class="pad"/>
    <circle cx="0"   cy="35"  r="8" class="pad"/>
    <circle cx="0"   cy="245" r="8" class="pad"/>
    <circle cx="-35" cy="175" r="8" class="pad"/>
    <circle cx="35"  cy="175" r="8" class="pad"/>

    <rect x="-140" y="50"  width="22" height="11" rx="2" class="pad"/>
    <rect x="-112" y="50"  width="22" height="11" rx="2" class="pad"/>
    <rect x="90"   y="50"  width="22" height="11" rx="2" class="pad"/>
    <rect x="118"  y="50"  width="22" height="11" rx="2" class="pad"/>
    <rect x="-140" y="219" width="22" height="11" rx="2" class="pad"/>
    <rect x="-112" y="219" width="22" height="11" rx="2" class="pad"/>
    <rect x="90"   y="219" width="22" height="11" rx="2" class="pad"/>
    <rect x="118"  y="219" width="22" height="11" rx="2" class="pad"/>

    <rect x="-116" y="0" width="14" height="22" rx="1" class="pad"/>
    <rect x="-94"  y="0" width="14" height="22" rx="1" class="pad"/>
    <rect x="-72"  y="0" width="14" height="22" rx="1" class="pad"/>
    <rect x="-50"  y="0" width="14" height="22" rx="1" class="pad"/>
    <rect x="-28"  y="0" width="14" height="22" rx="1" class="pad"/>
    <rect x="-6"   y="0" width="14" height="22" rx="1" class="pad"/>
    <rect x="16"   y="0" width="14" height="22" rx="1" class="pad"/>
    <rect x="38"   y="0" width="14" height="22" rx="1" class="pad"/>
    <rect x="60"   y="0" width="14" height="22" rx="1" class="pad"/>
    <rect x="82"   y="0" width="14" height="22" rx="1" class="pad"/>
    <rect x="104"  y="0" width="14" height="22" rx="1" class="pad"/>
  </g>

  <text x="340" y="372" text-anchor="middle" class="logo-text" font-size="40" font-weight="700">TTPForge</text>
  <text x="340" y="400" text-anchor="middle" class="logo-sub"  font-size="11" font-weight="400">PURPLE TEAM · TTP TRACKING</text>
</svg>
